# xmcd
#
# Track frame offsets:
#	150
#	24232
#	67230
#	95708
#	114020
#	138284
#	172744
#	216455
#
# Disc length: 3709 seconds
#
# Revision: 0
# Processed by: cddbd v1.5.2PL0 Copyright (c) Steve Scherf et al.
# Submitted via: audiograbber 1.83.01
#
DISCID=690e7b08
DTITLE=Grateful Dead - 93-04-04 Nassau Veterans Memorial Coliseum, Uniondale NY
DYEAR=1900
DGENRE=
TTITLE0=In The Midnight Hour
TTITLE1=Sugaree
TTITLE2=Walkin' Blues
TTITLE3=Dire Wolf
TTITLE4=When I Paint My Masterpiece
TTITLE5=So Many Roads
TTITLE6=Eternity
TTITLE7=Bird Song
EXTD=
EXTT0=
EXTT1=
EXTT2=
EXTT3=
EXTT4=
EXTT5=
EXTT6=
EXTT7=
PLAYORDER=
